{
    "asset": {
        "version": "2.0",
        "generator": "Open Asset Import Library (assimp v5.3.0)"
    },
    "extensionsUsed": [
        "KHR_materials_specular",
        "KHR_materials_volume",
        "FB_ngon_encoding"
    ],
    "accessors": [
        {
            "bufferView": 0,
            "byteOffset": 0,
            "componentType": 5126,
            "count": 190,
            "type": "VEC3",
            "max": [
                0.030096590518951417,
                0.9599239826202393,
                0.03451083227992058
            ],
            "min": [
                -0.2392103672027588,
                0.000009150545338343364,
                -0.03451165929436684
            ]
        },
        {
            "bufferView": 1,
            "byteOffset": 0,
            "componentType": 5126,
            "count": 190,
            "type": "VEC3",
            "max": [
                0.999086320400238,
                0.9958301186561585,
                1.0
            ],
            "min": [
                -1.0,
                -0.9999988079071045,
                -0.9310322999954224
            ]
        },
        {
            "bufferView": 2,
            "byteOffset": 0,
            "componentType": 5126,
            "count": 190,
            "type": "VEC2",
            "max": [
                0.48476290702819826,
                0.3941059112548828
            ],
            "min": [
                0.27104896306991579,
                0.08231711387634278
            ]
        },
        {
            "bufferView": 3,
            "byteOffset": 0,
            "componentType": 5125,
            "count": 528,
            "type": "SCALAR",
            "max": [
                189
            ],
            "min": [
                0
            ]
        }
    ],
    "buffers": [
        {
            "byteLength": 8192,
            "uri": "1ea8d10a-1606-4908-8e73-3fb4b0a680be.bin"
        }
    ],
    "bufferViews": [
        {
            "buffer": 0,
            "byteOffset": 0,
            "byteLength": 2280,
            "target": 34962
        },
        {
            "buffer": 0,
            "byteOffset": 2280,
            "byteLength": 2280,
            "target": 34962
        },
        {
            "buffer": 0,
            "byteOffset": 4560,
            "byteLength": 1520,
            "target": 34962
        },
        {
            "buffer": 0,
            "byteOffset": 6080,
            "byteLength": 2112,
            "target": 34963
        }
    ],
    "images": [
        {
            "name": "streetlight.fbm\\citybits_texture.png",
            "uri": "data:image/png;base64,"
        }
    ],
    "materials": [
        {
            "name": "citybits_texture",
            "pbrMetallicRoughness": {
                "baseColorTexture": {
                    "index": 0
                },
                "metallicFactor": 0.0,
                "roughnessFactor": 0.4000000059604645
            },
            "extensions": {
                "KHR_materials_specular": {
                    "specularFactor": 1.0,
                    "specularColorFactor": [
                        1.0,
                        1.0,
                        1.0
                    ]
                }
            }
        }
    ],
    "meshes": [
        {
            "name": "streetlight",
            "primitives": [
                {
                    "extensions": {
                        "FB_ngon_encoding": {}
                    },
                    "mode": 4,
                    "material": 0,
                    "indices": 3,
                    "attributes": {
                        "POSITION": 0,
                        "NORMAL": 1,
                        "TEXCOORD_0": 2
                    }
                }
            ]
        }
    ],
    "nodes": [
        {
            "name": "RootNode",
            "children": [
                1
            ]
        },
        {
            "name": "streetlight",
            "mesh": 0,
            "extras": {
                "UserProperties": "",
                "IsNull": false,
                "DefaultAttributeIndex": 0,
                "InheritType": 1
            }
        }
    ],
    "samplers": [
        {}
    ],
    "scenes": [
        {
            "nodes": [
                0
            ]
        }
    ],
    "textures": [
        {
            "source": 0,
            "sampler": 0
        }
    ],
    "scene": 0
}